HIERARCHY
ROOT Hips
{
 OFFSET 0.000000 0.000000 0.000000
 CHANNELS 6 Xposition Yposition Zposition Yrotation Xrotation Zrotation
 JOINT Chest
 {
  OFFSET 0.000000 10.354800 0.006500
  CHANNELS 3 Yrotation Xrotation Zrotation
  JOINT Chest2
  {
   OFFSET 0.000000 10.435800 -0.013200
   CHANNELS 3 Yrotation Xrotation Zrotation
   JOINT Chest3
   {
    OFFSET 0.000000 10.393700 0.000000
    CHANNELS 3 Yrotation Xrotation Zrotation
    JOINT Chest4
    {
     OFFSET 0.000000 10.383100 0.000000
     CHANNELS 3 Yrotation Xrotation Zrotation
     JOINT Neck
     {
      OFFSET 0.000000 15.694000 0.000000
      CHANNELS 3 Yrotation Xrotation Zrotation
      JOINT Head
      {
       OFFSET 0.000000 9.711000 -0.028000
       CHANNELS 3 Yrotation Xrotation Zrotation
       End Site
       {
        OFFSET 0.000000 18.578700 -0.014800
       }
      }
     }
     JOINT RightCollar
     {
      OFFSET -3.157200 10.367500 0.000000
      CHANNELS 3 Yrotation Xrotation Zrotation
      JOINT RightShoulder
      {
       OFFSET -14.482500 0.000000 0.000000
       CHANNELS 3 Yrotation Xrotation Zrotation
       JOINT RightElbow
       {
        OFFSET 0.000000 -31.707800 0.000000
        CHANNELS 3 Yrotation Xrotation Zrotation
        JOINT RightWrist
        {
         OFFSET 0.000000 -25.659300 0.000000
         CHANNELS 3 Yrotation Xrotation Zrotation
         End Site
         {
          OFFSET 0.000000 -18.994300 0.000000
         }
        }
       }
      }
     }
     JOINT LeftCollar
     {
      OFFSET 3.157200 10.367500 0.000000
      CHANNELS 3 Yrotation Xrotation Zrotation
      JOINT LeftShoulder
      {
       OFFSET 14.482500 0.000000 0.000000
       CHANNELS 3 Yrotation Xrotation Zrotation
       JOINT LeftElbow
       {
        OFFSET 0.000000 -31.707800 0.000000
        CHANNELS 3 Yrotation Xrotation Zrotation
        JOINT LeftWrist
        {
         OFFSET 0.000000 -25.659300 0.000000
         CHANNELS 3 Yrotation Xrotation Zrotation
         End Site
         {
          OFFSET 0.000000 -18.994300 0.000000
         }
        }
       }
      }
     }
    }
   }
  }
 }
 JOINT RightHip
 {
  OFFSET -8.365600 -0.032100 -0.003200
  CHANNELS 3 Yrotation Xrotation Zrotation
  JOINT RightKnee
  {
   OFFSET 0.000000 -43.980000 0.003100
   CHANNELS 3 Yrotation Xrotation Zrotation
   JOINT RightAnkle
   {
    OFFSET 0.000000 -42.882800 0.005200
    CHANNELS 3 Yrotation Xrotation Zrotation
    JOINT RightToe
    {
     OFFSET 0.000000 -4.915500 10.826300
     CHANNELS 3 Yrotation Xrotation Zrotation
     End Site
     {
      OFFSET 0.000000 -1.517500 6.175900
     }
    }
   }
  }
 }
 JOINT LeftHip
 {
  OFFSET 8.365600 -0.032100 -0.003200
  CHANNELS 3 Yrotation Xrotation Zrotation
  JOINT LeftKnee
  {
   OFFSET 0.000000 -43.980000 0.003100
   CHANNELS 3 Yrotation Xrotation Zrotation
   JOINT LeftAnkle
   {
    OFFSET 0.000000 -42.882800 0.005200
    CHANNELS 3 Yrotation Xrotation Zrotation
    JOINT LeftToe
    {
     OFFSET 0.000000 -4.915500 10.826300
     CHANNELS 3 Yrotation Xrotation Zrotation
     End Site
     {
      OFFSET 0.000000 -1.517500 6.175900
     }
    }
   }
  }
 }
}
MOTION
Frames: 8
Frame Time: 0.008333
0.000000 91.618600 0.000000 0.000000 -5.767877 0.000000 0.000000 11.653817 0.000000 0.000000 -5.885947 0.000000 0.000000 -0.000000 0.000000 0.000000 -0.000000 0.000000 0.000000 12.528835 0.000000 0.000000 0.711642 0.000000 0.000000 -0.000000 0.000000 0.000000 0.000000 -90.000000 0.000000 -2.309062 0.000000 0.000000 2.309062 0.000000 0.000000 -0.000000 0.000000 0.000000 -0.000000 90.000000 0.000000 -2.309062 0.000000 0.000000 2.309062 0.000000 0.000000 8.520406 0.000000 0.000000 1.905762 0.000000 -0.000000 -4.658285 0.000000 0.000000 -0.000000 0.000000 0.000000 8.520406 0.000000 0.000000 1.905762 0.000000 -0.000000 -4.658285 0.000000 0.000000 -0.000000 0.000000
-3.536171 126.332654 36.631110 176.065835 -16.985408 -0.242007 -2.165144 11.683262 3.637141 -0.232021 0.855508 0.318405 -0.290804 1.533203 0.481765 -2.000410 10.678597 3.376166 -4.343453 19.688355 -3.287249 -3.914241 -4.774899 -2.506081 11.315449 1.533391 -6.459666 22.668296 -41.149529 -30.062073 -64.165473 -30.685091 61.355167 -27.041184 -31.551944 -43.842303 -8.000040 5.930249 -1.160299 7.218055 -43.366406 -2.202740 73.188389 -38.406705 -72.320298 29.615349 -18.715450 47.237565 14.363687 -64.934913 -5.329825 -116.281817 79.755556 -110.847430 3.156959 -10.539210 -14.182222 -0.042742 -0.025427 -0.019399 -17.239273 -64.534600 8.034528 92.692716 82.447757 85.095641 -8.300525 -8.154430 1.413994 0.001838 -0.014734 0.000834
-3.530453 126.332087 36.620266 176.092082 -16.958634 -0.266823 -2.147098 11.700822 3.643948 -0.187969 0.881014 0.290671 -0.318020 1.503900 0.494315 -1.984983 10.663411 3.342067 -4.466012 19.566377 -3.233955 -4.046051 -4.906233 -2.443084 11.303189 1.487166 -6.528524 22.266387 -41.522387 -29.729666 -64.346912 -30.894129 60.793492 -26.786110 -32.005692 -43.837765 -8.199732 5.846535 -1.120469 7.426063 -43.918484 -2.559330 73.453130 -38.495719 -71.231210 29.460743 -19.154546 47.589657 14.311986 -64.955156 -5.243759 -116.272271 79.673178 -110.861103 3.151099 -10.585638 -14.169273 -0.016053 -0.016441 -0.007287 -17.359205 -64.543316 8.108384 92.825890 82.459148 85.275499 -8.265354 -8.172936 1.355826 0.013486 -0.000729 0.006123
-3.529170 126.328300 36.615110 176.111690 -16.874696 -0.267161 -2.134671 11.676889 3.629193 -0.186675 0.876821 0.287653 -0.327956 1.468738 0.503435 -1.969578 10.672095 3.301537 -4.576511 19.427966 -3.201829 -4.171448 -5.058555 -2.382977 11.255843 1.482493 -6.602772 21.918813 -41.784453 -29.485592 -64.628332 -31.145157 60.607359 -26.691144 -32.239480 -43.793144 -8.359194 5.815255 -1.113732 7.768006 -44.341087 -2.891236 73.570951 -38.703005 -70.518112 29.380724 -19.520575 47.779089 14.347785 -65.033316 -5.273843 -116.285927 79.631208 -110.882267 3.183204 -10.504069 -14.207467 -0.008796 -0.008981 -0.003993 -17.448960 -64.614787 8.168372 92.932789 82.470488 85.405581 -8.234817 -8.172630 1.330061 0.014137 0.002409 0.006419
-3.528573 126.323010 36.610383 176.120678 -16.769120 -0.261673 -2.130922 11.604696 3.618039 -0.182472 0.910909 0.273765 -0.318519 1.473880 0.491967 -1.972246 10.626527 3.298831 -4.686739 19.283365 -3.186152 -4.288679 -5.227888 -2.325836 11.166519 1.526001 -6.667736 21.659974 -41.953942 -29.382495 -64.973700 -31.386046 60.725699 -26.744478 -32.367691 -43.677282 -8.487228 5.842412 -1.128462 8.152381 -44.649283 -3.123942 73.605665 -38.987564 -70.151455 29.343351 -19.798737 47.842923 14.411579 -65.134616 -5.343790 -116.372062 79.608873 -110.971474 3.206124 -10.437796 -14.227037 -0.012919 -0.005249 -0.005865 -17.516949 -64.712615 8.226440 93.117062 82.493203 85.618935 -8.205983 -8.181997 1.305518 0.015741 0.000151 0.007147
-3.527556 126.317142 36.603614 176.118638 -16.662553 -0.256387 -2.120902 11.594663 3.591465 -0.181280 0.869219 0.282945 -0.317328 1.500174 0.473355 -1.973487 10.588033 3.285309 -4.783518 19.118848 -3.157617 -4.398177 -5.408962 -2.272380 11.048533 1.584099 -6.698880 21.515120 -42.037460 -29.431375 -65.358783 -31.615582 61.066624 -26.923798 -32.445177 -43.463134 -8.581794 5.901508 -1.132457 8.439522 -44.849924 -3.162311 73.663184 -39.338323 -70.089417 29.329102 -19.951652 47.802701 14.487185 -65.232555 -5.392181 -116.455392 79.578905 -111.060743 3.196995 -10.401553 -14.227224 -0.010581 -0.001265 -0.004804 -17.603491 -64.797134 8.303502 93.276787 82.514370 85.795278 -8.166691 -8.219063 1.279171 0.012278 0.001803 0.005575
-3.525375 126.310891 36.595032 176.102476 -16.561193 -0.255286 -2.115676 11.592055 3.568624 -0.179840 0.844799 0.286088 -0.308842 1.477405 0.475952 -1.983882 10.591839 3.244149 -4.866215 18.941733 -3.117737 -4.498965 -5.593677 -2.224603 10.913547 1.646599 -6.701392 21.446333 -42.060014 -29.578762 -65.728773 -31.857629 61.555311 -27.163619 -32.484015 -43.169448 -8.643401 5.981498 -1.123644 8.510511 -44.953382 -2.948666 73.815864 -39.763040 -70.260041 29.341988 -19.962008 47.659686 14.544172 -65.320788 -5.392219 -116.499714 79.555048 -111.115066 3.161156 -10.381317 -14.224292 0.000316 0.003132 0.000144 -17.743912 -64.867249 8.434487 93.480538 82.534895 85.991312 -8.097450 -8.245980 1.261158 0.006492 0.009635 0.002948
-3.523732 126.304277 36.585405 176.062417 -16.467243 -0.246850 -2.099161 11.573382 3.549714 -0.183774 0.859479 0.277135 -0.280634 1.406077 0.498432 -2.015829 10.617937 3.202270 -4.948245 18.776482 -3.098441 -4.590613 -5.775082 -2.184507 10.769641 1.730363 -6.705072 21.386878 -42.057133 -29.746779 -66.020754 -32.148994 62.124645 -27.398420 -32.468190 -42.841308 -8.683302 6.084994 -1.127105 8.340479 -44.978945 -2.500273 74.057294 -40.267592 -70.566327 29.407943 -19.846286 47.393970 14.623854 -65.401977 -5.413648 -116.661490 79.553389 -111.285408 3.128801 -10.390557 -14.215341 -0.001542 0.011631 -0.000700 -17.848584 -64.939051 8.560893 93.787772 82.573512 86.293791 -8.061291 -8.265020 1.259060 0.001472 0.023852 0.000669
